<mxfile host="Electron" agent="Mozilla/5.0 (Windows NT 10.0; Win64; x64) AppleWebKit/537.36 (KHTML, like Gecko) draw.io/24.7.5 Chrome/126.0.6478.183 Electron/31.3.0 Safari/537.36" version="24.7.5">
  <diagram name="第 1 页" id="QzfHGGEAm4ZfcBsxBvQd">
    <mxGraphModel dx="2563" dy="1304" grid="1" gridSize="10" guides="1" tooltips="1" connect="1" arrows="1" fold="1" page="1" pageScale="1" pageWidth="827" pageHeight="1169" math="0" shadow="0">
      <root>
        <mxCell id="0" />
        <mxCell id="1" parent="0" />
        <mxCell id="9h0WY6MqMrnM_A3f1O6X-4" style="edgeStyle=orthogonalEdgeStyle;rounded=0;orthogonalLoop=1;jettySize=auto;html=1;exitX=1;exitY=0.5;exitDx=0;exitDy=0;entryX=0;entryY=0.5;entryDx=0;entryDy=0;" parent="1" source="9h0WY6MqMrnM_A3f1O6X-1" target="9h0WY6MqMrnM_A3f1O6X-2" edge="1">
          <mxGeometry relative="1" as="geometry" />
        </mxCell>
        <mxCell id="9h0WY6MqMrnM_A3f1O6X-1" value="&lt;font style=&quot;font-size: 28px;&quot;&gt;Start&lt;/font&gt;" style="ellipse;whiteSpace=wrap;html=1;" parent="1" vertex="1">
          <mxGeometry x="-90" y="275" width="120" height="80" as="geometry" />
        </mxCell>
        <mxCell id="9h0WY6MqMrnM_A3f1O6X-5" style="edgeStyle=orthogonalEdgeStyle;rounded=0;orthogonalLoop=1;jettySize=auto;html=1;exitX=1;exitY=0.5;exitDx=0;exitDy=0;entryX=0;entryY=0.5;entryDx=0;entryDy=0;" parent="1" source="9h0WY6MqMrnM_A3f1O6X-2" target="9h0WY6MqMrnM_A3f1O6X-3" edge="1">
          <mxGeometry relative="1" as="geometry" />
        </mxCell>
        <mxCell id="9h0WY6MqMrnM_A3f1O6X-13" style="edgeStyle=orthogonalEdgeStyle;rounded=0;orthogonalLoop=1;jettySize=auto;html=1;exitX=0.5;exitY=1;exitDx=0;exitDy=0;entryX=0.5;entryY=0;entryDx=0;entryDy=0;" parent="1" source="9h0WY6MqMrnM_A3f1O6X-2" target="9h0WY6MqMrnM_A3f1O6X-9" edge="1">
          <mxGeometry relative="1" as="geometry" />
        </mxCell>
        <mxCell id="9h0WY6MqMrnM_A3f1O6X-2" value="&lt;font style=&quot;font-size: 28px;&quot;&gt;chunk file larger than 10000 Byte?&lt;/font&gt;" style="rhombus;whiteSpace=wrap;html=1;" parent="1" vertex="1">
          <mxGeometry x="160" y="240" width="270" height="150" as="geometry" />
        </mxCell>
        <mxCell id="9h0WY6MqMrnM_A3f1O6X-8" style="edgeStyle=orthogonalEdgeStyle;rounded=0;orthogonalLoop=1;jettySize=auto;html=1;exitX=1;exitY=0.5;exitDx=0;exitDy=0;entryX=0;entryY=0.5;entryDx=0;entryDy=0;" parent="1" source="9h0WY6MqMrnM_A3f1O6X-3" target="9h0WY6MqMrnM_A3f1O6X-7" edge="1">
          <mxGeometry relative="1" as="geometry" />
        </mxCell>
        <mxCell id="9h0WY6MqMrnM_A3f1O6X-14" style="edgeStyle=orthogonalEdgeStyle;rounded=0;orthogonalLoop=1;jettySize=auto;html=1;exitX=0.5;exitY=1;exitDx=0;exitDy=0;entryX=0.5;entryY=0;entryDx=0;entryDy=0;" parent="1" source="9h0WY6MqMrnM_A3f1O6X-3" target="9h0WY6MqMrnM_A3f1O6X-10" edge="1">
          <mxGeometry relative="1" as="geometry" />
        </mxCell>
        <mxCell id="9h0WY6MqMrnM_A3f1O6X-3" value="&lt;font style=&quot;font-size: 28px;&quot;&gt;chunk file more&lt;/font&gt;&lt;div style=&quot;font-size: 28px;&quot;&gt;&lt;font style=&quot;font-size: 28px;&quot;&gt;&amp;nbsp;than the number of MPI Process?&amp;nbsp;&lt;/font&gt;&lt;/div&gt;" style="rhombus;whiteSpace=wrap;html=1;" parent="1" vertex="1">
          <mxGeometry x="570" y="240" width="270" height="150" as="geometry" />
        </mxCell>
        <mxCell id="9h0WY6MqMrnM_A3f1O6X-15" style="edgeStyle=orthogonalEdgeStyle;rounded=0;orthogonalLoop=1;jettySize=auto;html=1;exitX=0.5;exitY=1;exitDx=0;exitDy=0;entryX=0.5;entryY=0;entryDx=0;entryDy=0;" parent="1" source="9h0WY6MqMrnM_A3f1O6X-7" target="9h0WY6MqMrnM_A3f1O6X-11" edge="1">
          <mxGeometry relative="1" as="geometry" />
        </mxCell>
        <mxCell id="9h0WY6MqMrnM_A3f1O6X-16" style="edgeStyle=orthogonalEdgeStyle;rounded=0;orthogonalLoop=1;jettySize=auto;html=1;exitX=1;exitY=0.5;exitDx=0;exitDy=0;entryX=0;entryY=0.5;entryDx=0;entryDy=0;" parent="1" source="9h0WY6MqMrnM_A3f1O6X-7" target="9h0WY6MqMrnM_A3f1O6X-12" edge="1">
          <mxGeometry relative="1" as="geometry" />
        </mxCell>
        <mxCell id="9h0WY6MqMrnM_A3f1O6X-7" value="&lt;font style=&quot;font-size: 28px;&quot;&gt;chunk file larger than&amp;nbsp;&lt;/font&gt;&lt;div style=&quot;font-size: 28px;&quot;&gt;&lt;font style=&quot;font-size: 28px;&quot;&gt;1MB * MPI Process&lt;/font&gt;&lt;/div&gt;" style="rhombus;whiteSpace=wrap;html=1;" parent="1" vertex="1">
          <mxGeometry x="900" y="240" width="270" height="150" as="geometry" />
        </mxCell>
        <mxCell id="9h0WY6MqMrnM_A3f1O6X-9" value="&lt;font style=&quot;font-size: 28px;&quot;&gt;Butterfly&lt;/font&gt;" style="rounded=0;whiteSpace=wrap;html=1;" parent="1" vertex="1">
          <mxGeometry x="235" y="480" width="120" height="60" as="geometry" />
        </mxCell>
        <mxCell id="9h0WY6MqMrnM_A3f1O6X-10" value="&lt;font style=&quot;font-size: 28px;&quot;&gt;reduce+broadcast&lt;/font&gt;" style="rounded=0;whiteSpace=wrap;html=1;" parent="1" vertex="1">
          <mxGeometry x="580" y="480" width="250" height="60" as="geometry" />
        </mxCell>
        <mxCell id="9h0WY6MqMrnM_A3f1O6X-11" value="&lt;font style=&quot;font-size: 28px;&quot;&gt;Ring&lt;/font&gt;" style="rounded=0;whiteSpace=wrap;html=1;" parent="1" vertex="1">
          <mxGeometry x="975" y="480" width="120" height="60" as="geometry" />
        </mxCell>
        <mxCell id="9h0WY6MqMrnM_A3f1O6X-12" value="&lt;font style=&quot;font-size: 28px;&quot;&gt;Segmented Ring&lt;/font&gt;" style="rounded=0;whiteSpace=wrap;html=1;" parent="1" vertex="1">
          <mxGeometry x="1270" y="277.5" width="150" height="75" as="geometry" />
        </mxCell>
        <mxCell id="9h0WY6MqMrnM_A3f1O6X-17" value="" style="shape=image;verticalLabelPosition=bottom;labelBackgroundColor=default;verticalAlign=top;aspect=fixed;imageAspect=0;image=https://pic3.zhimg.com/v2-d42c33c98d0bec0b8567373941d1c7fc_r.jpg;" parent="1" vertex="1">
          <mxGeometry x="549" y="556.5" width="296" height="296" as="geometry" />
        </mxCell>
        <mxCell id="9h0WY6MqMrnM_A3f1O6X-18" value="" style="shape=image;verticalLabelPosition=bottom;labelBackgroundColor=default;verticalAlign=top;aspect=fixed;imageAspect=0;image=https://pic4.zhimg.com/v2-77c19f1a584634f084dbfb25d179b5c5_r.jpg;" parent="1" vertex="1">
          <mxGeometry x="20" y="550" width="501.11" height="309" as="geometry" />
        </mxCell>
        <mxCell id="9h0WY6MqMrnM_A3f1O6X-19" value="" style="shape=image;verticalLabelPosition=bottom;labelBackgroundColor=default;verticalAlign=top;aspect=fixed;imageAspect=0;image=https://pic4.zhimg.com/v2-8d92848cad4ccb12717c8ceb03e8adb9_r.jpg;" parent="1" vertex="1">
          <mxGeometry x="920" y="556.5" width="390" height="336.05" as="geometry" />
        </mxCell>
      </root>
    </mxGraphModel>
  </diagram>
</mxfile>
